#Comment line ignore any data following # character 
#Hierarchical Translation and Rotation (.htr) file 
[Header]	
#Header keywords are followed by a single value 
FileType HTR		#Single word string
DataType HTRS		#Translation followed by rotation and scale data
FileVersion 1		#integer
NumSegments 23		#integer
NumFrames 6		#integer
DataFrameRate 30		#integer, data frame rate in this file
EulerRotationOrder ZYX
CalibrationUnits mm
RotationUnits Degrees
GlobalAxisofGravity Y
BoneLengthAxis Y
ScaleFactor 1.00
[SegmentNames&Hierarchy]
#CHILD	PARENT
MASTER GLOBAL
weapon MASTER
arm_lock_bottom_part1 weapon
arm_lock_bottom_part2 weapon
arm_lock_bottom_part3 weapon
arm_lock_bottom_part4 weapon
arm_lock_top_part1 weapon
arm_lock_top_part2 weapon
arm_lock_top_part3 weapon
front_lower_left_part1 weapon
front_lower_right_part1 weapon
front_top_left_part weapon
front_top_right_part1 weapon
scope_part1 weapon
scope_part2 weapon
front_lower_left_part2 front_lower_left_part1
front_lower_left_part3 front_lower_left_part2
front_lower_right_part2 front_lower_right_part1
front_lower_right_part3 front_lower_right_part2
front_top_left_part2 front_top_left_part
front_top_left_part3 front_top_left_part2
front_top_right_part2 front_top_right_part1
front_top_right_part3 front_top_right_part2
[BasePosition]
#SegmentName Tx, Ty, Tz, Rx, Ry, Rz, BoneLength
MASTER 0.000000 0.000000 0.000000 -90.000000 0.000000 0.000000 10.000000 
weapon 0.000000 0.000000 0.000000 0.000000 0.000000 0.000000 10.000000 
arm_lock_bottom_part1 0.000000 0.000000 0.000000 0.000000 0.000000 0.000000 10.000000 
arm_lock_bottom_part2 0.000000 0.000000 0.000000 0.000000 0.000000 0.000000 10.000000 
arm_lock_bottom_part3 0.000000 0.000000 0.000000 0.000000 0.000000 0.000000 10.000000 
arm_lock_bottom_part4 0.000000 0.000000 0.000000 0.000000 0.000000 0.000000 10.000000 
arm_lock_top_part1 0.000000 0.000000 0.000000 0.000000 0.000000 0.000000 10.000000 
arm_lock_top_part2 0.000000 0.000000 0.000000 0.000000 0.000000 0.000000 10.000000 
arm_lock_top_part3 0.000000 0.000000 0.000000 0.000000 0.000000 0.000000 10.000000 
front_lower_left_part1 0.000000 0.000000 0.000000 0.000000 0.000000 0.000000 10.000000 
front_lower_right_part1 0.000000 0.000000 0.000000 0.000000 0.000000 0.000000 10.000000 
front_top_left_part 0.000000 0.000000 0.000000 0.000000 0.000000 0.000000 10.000000 
front_top_right_part1 0.000000 0.000000 0.000000 0.000000 0.000000 0.000000 10.000000 
scope_part1 0.000000 0.000000 0.000000 0.000000 0.000000 0.000000 10.000000 
scope_part2 0.000000 0.000000 0.000000 0.000000 0.000000 0.000000 10.000000 
front_lower_left_part2 0.000000 0.000000 0.000000 0.000000 0.000000 0.000000 10.000000 
front_lower_left_part3 0.000000 0.000000 0.000000 0.000000 0.000000 0.000000 10.000000 
front_lower_right_part2 0.000000 0.000000 0.000000 0.000000 0.000000 0.000000 10.000000 
front_lower_right_part3 0.000000 0.000000 0.000000 0.000000 0.000000 0.000000 10.000000 
front_top_left_part2 0.000000 0.000000 0.000000 0.000000 0.000000 0.000000 10.000000 
front_top_left_part3 0.000000 0.000000 0.000000 0.000000 0.000000 0.000000 10.000000 
front_top_right_part2 0.000000 0.000000 0.000000 0.000000 0.000000 0.000000 10.000000 
front_top_right_part3 0.000000 0.000000 0.000000 0.000000 0.000000 0.000000 10.000000 
#Beginning of Data. Separated by tabs
#Fr	Tx	Ty	Tz	Rx	Ry	Rz	SF
[MASTER]
8 0.000000 -0.000019 0.000002 0.002458 -0.000000 0.000000 0.000019
9 0.000000 -0.000019 0.000002 0.002458 -0.000000 0.000000 0.000019
10 0.000000 -0.000019 0.000002 0.002458 -0.000000 0.000000 0.000019
11 0.000000 -0.000019 0.000002 0.002458 -0.000000 0.000000 0.000019
12 0.000000 -0.000019 0.000002 0.002458 -0.000000 0.000000 0.000019
13 0.000000 -0.000019 0.000002 0.002458 -0.000000 0.000000 0.000019
[weapon]
8 10.182476 -168.977844 -13.084106 -0.002473 -0.000000 -0.000020 169.789246
9 10.182457 -168.977844 -13.084106 -0.002473 -0.000000 -0.000020 169.789246
10 10.182476 -168.977890 -13.084106 -0.002473 -0.000000 -0.000020 169.789291
11 10.182457 -168.977844 -13.084106 -0.002473 -0.000000 -0.000020 169.789246
12 10.182457 -168.977844 -13.084106 -0.002473 -0.000000 -0.000020 169.789246
13 10.182476 -168.977890 -13.084106 -0.002473 -0.000000 -0.000020 169.789291
[arm_lock_bottom_part1]
8 -48.820000 98.566170 -83.498993 179.999985 0.000004 9.388626 138.096939
9 -48.820000 98.566208 -83.498993 179.999985 0.000004 9.388626 138.096970
10 -48.820019 98.566170 -83.498993 179.999985 0.000004 9.388626 138.096939
11 -48.820000 98.566208 -83.498993 179.999985 0.000004 9.388626 138.096970
12 -48.820000 98.566208 -83.498993 179.999985 0.000004 9.388626 138.096970
13 -48.820019 98.566208 -83.498993 179.999985 0.000004 9.388626 138.096970
[arm_lock_bottom_part2]
8 -49.022766 58.781967 -78.526535 -179.999985 -0.000001 6.576765 109.658417
9 -49.022766 58.782005 -78.526535 -179.999985 -0.000001 6.576765 109.658440
10 -49.022751 58.781967 -78.526535 -179.999985 -0.000001 6.576765 109.658409
11 -49.022766 58.782005 -78.526535 -179.999985 -0.000001 6.576765 109.658440
12 -49.022766 58.782005 -78.526535 -179.999985 -0.000001 6.576765 109.658440
13 -49.022766 58.781967 -78.526535 -179.999985 -0.000001 6.576765 109.658417
[arm_lock_bottom_part3]
8 -51.266422 -16.798248 -66.920395 -179.999985 -0.000001 4.326176 85.957932
9 -51.266422 -16.798210 -66.920395 -179.999985 -0.000001 4.326176 85.957924
10 -51.266422 -16.798248 -66.920395 -179.999985 -0.000001 4.326176 85.957932
11 -51.266422 -16.798210 -66.920395 -179.999985 -0.000001 4.326176 85.957924
12 -51.266422 -16.798210 -66.920395 -179.999985 -0.000001 4.326176 85.957924
13 -51.266457 -16.798210 -66.920395 -179.999985 -0.000001 4.326176 85.957947
[arm_lock_bottom_part4]
8 -40.078083 -93.503136 -59.330063 -179.999985 -0.000000 1.322129 117.767326
9 -40.078102 -93.503113 -59.330063 -179.999985 -0.000000 1.322129 117.767326
10 -40.078083 -93.503098 -59.330063 -179.999985 -0.000000 1.322129 117.767311
11 -40.078102 -93.503113 -59.330063 -179.999985 -0.000000 1.322129 117.767326
12 -40.078102 -93.503113 -59.330063 -179.999985 -0.000000 1.322129 117.767326
13 -40.078102 -93.503113 -59.330063 -179.999985 -0.000000 1.322129 117.767326
[arm_lock_top_part1]
8 -47.532558 61.554451 78.379364 0.000000 -0.000000 -9.999999 110.415672
9 -47.532558 61.554489 78.379364 0.000000 -0.000000 -9.999999 110.415680
10 -47.532558 61.554451 78.379364 0.000000 -0.000000 -9.999999 110.415672
11 -47.532558 61.554489 78.379364 0.000000 -0.000000 -9.999999 110.415680
12 -47.532558 61.554489 78.379364 0.000000 -0.000000 -9.999999 110.415680
13 -47.532558 61.554451 78.379364 0.000000 -0.000000 -9.999999 110.415672
[arm_lock_top_part2]
8 -45.622673 13.709869 63.393555 0.000000 -0.000000 -7.722126 79.297745
9 -45.622673 13.709908 63.393555 0.000000 -0.000000 -7.722126 79.297745
10 -45.622673 13.709908 63.393555 0.000000 -0.000000 -7.722126 79.297745
11 -45.622673 13.709908 63.393555 0.000000 -0.000000 -7.722126 79.297745
12 -45.622673 13.709908 63.393555 0.000000 -0.000000 -7.722126 79.297745
13 -45.622692 13.709946 63.393555 0.000000 -0.000000 -7.722126 79.297760
[arm_lock_top_part3]
8 -43.788525 -73.747253 72.061615 0.000000 0.000000 -4.533067 112.022179
9 -43.788544 -73.747208 72.061615 0.000000 0.000000 -4.533067 112.022163
10 -43.788544 -73.747208 72.061615 0.000000 0.000000 -4.533067 112.022163
11 -43.788544 -73.747208 72.061615 0.000000 0.000000 -4.533067 112.022163
12 -43.788544 -73.747208 72.061615 0.000000 0.000000 -4.533067 112.022163
13 -43.788544 -73.747231 72.061615 0.000000 0.000000 -4.533067 112.022171
[front_lower_left_part1]
8 -46.798553 475.070953 -43.538895 0.000000 0.000003 -0.000000 479.351807
9 -46.798553 475.070984 -43.538895 0.000000 0.000003 -0.000000 479.351837
10 -46.798534 475.070862 -43.538895 0.000000 0.000003 -0.000000 479.351715
11 -46.798553 475.070984 -43.538895 0.000000 0.000003 -0.000000 479.351837
12 -46.798553 475.070984 -43.538895 0.000000 0.000003 -0.000000 479.351837
13 -46.798573 475.070892 -43.538895 0.000000 0.000003 -0.000000 479.351746
[front_lower_right_part1]
8 26.433447 475.070953 -43.538895 0.000000 -0.000000 -0.000000 477.793640
9 26.433468 475.070984 -43.538742 0.000000 -0.000000 -0.000000 477.793671
10 26.433468 475.071014 -43.538895 0.000000 -0.000000 -0.000000 477.793701
11 26.433468 475.070984 -43.538742 0.000000 -0.000000 -0.000000 477.793671
12 26.433468 475.070984 -43.538742 0.000000 -0.000000 -0.000000 477.793671
13 26.433428 475.070984 -43.538895 0.000000 -0.000000 -0.000000 477.793671
[front_top_left_part]
8 -47.897224 494.788879 7.030945 -0.000000 0.000003 -0.000001 497.151489
9 -47.897224 494.788910 7.030945 -0.000000 0.000003 -0.000001 497.151520
10 -47.897205 494.788788 7.030945 -0.000000 0.000003 -0.000001 497.151398
11 -47.897224 494.788910 7.030945 -0.000000 0.000003 -0.000001 497.151520
12 -47.897224 494.788910 7.030945 -0.000000 0.000003 -0.000001 497.151520
13 -47.897224 494.788910 7.030945 -0.000000 0.000003 -0.000001 497.151520
[front_top_right_part1]
8 27.532156 494.788879 7.031097 0.000000 -0.000000 -0.000000 495.604187
9 27.532139 494.788910 7.031097 0.000000 -0.000000 -0.000000 495.604218
10 27.532177 494.788727 7.031097 0.000000 -0.000000 -0.000000 495.604004
11 27.532139 494.788910 7.031097 0.000000 -0.000000 -0.000000 495.604218
12 27.532139 494.788910 7.031097 0.000000 -0.000000 -0.000000 495.604218
13 27.532101 494.788849 7.031097 0.000000 -0.000000 -0.000000 495.604156
[scope_part1]
8 -10.754318 87.338905 156.453094 -4.904453 -0.147652 0.012647 179.502960
9 -10.754299 87.338936 156.453094 -4.904466 -0.188721 0.016259 179.502960
10 -10.754318 87.338936 156.453094 -4.904483 -0.233653 0.020042 179.502960
11 -10.754299 87.338936 156.453094 -4.904506 -0.282119 0.024278 179.502960
12 -10.754299 87.338936 156.453094 -4.904537 -0.333602 0.028650 179.502960
13 -10.754318 87.338974 156.453094 -4.904573 -0.387781 0.033295 179.502975
[scope_part2]
8 -10.754280 82.597305 156.859894 -4.904449 0.137250 -0.011778 177.603470
9 -10.754299 82.597351 156.859894 -4.904461 0.175398 -0.014956 177.603500
10 -10.754299 82.597305 156.859894 -4.904476 0.217163 -0.018605 177.603470
11 -10.754299 82.597351 156.859894 -4.904496 0.262170 -0.022385 177.603500
12 -10.754299 82.597351 156.859894 -4.904521 0.310022 -0.026601 177.603500
13 -10.754299 82.597389 156.859894 -4.904553 0.360345 -0.030924 177.603516
[front_lower_left_part2]
8 -55.193501 141.618484 32.268444 0.000000 -0.000000 0.146030 155.381378
9 -55.193516 141.618484 32.268444 0.000000 -0.000000 0.188220 155.381378
10 -55.193535 141.618408 32.268444 0.000000 -0.000000 0.235205 155.381317
11 -55.193516 141.618484 32.268444 0.000000 -0.000000 0.286513 155.381378
12 -55.193516 141.618484 32.268444 0.000000 -0.000000 0.341845 155.381378
13 -55.193535 141.618484 32.268444 0.000000 -0.000000 0.401343 155.381378
[front_lower_left_part3]
8 -10.943775 108.509445 -11.125183 33.394829 -15.922305 -13.625133 109.625893
9 -10.943755 108.509445 -11.124877 33.408119 -15.891619 -13.673542 109.625854
10 -10.943775 108.509590 -11.125030 33.421368 -15.860917 -13.721934 109.626022
11 -10.943755 108.509369 -11.124725 33.436459 -15.825792 -13.777323 109.625763
12 -10.943755 108.509369 -11.124877 33.452709 -15.787990 -13.836809 109.625778
13 -10.943775 108.509521 -11.124877 33.469929 -15.747704 -13.900073 109.625931
[front_lower_right_part2]
8 55.193707 141.618347 32.268291 0.000000 0.000000 -0.069572 155.381271
9 55.193707 141.618347 32.268291 0.000000 0.000000 -0.089660 155.381271
10 55.193748 141.618408 32.268291 0.000000 0.000000 -0.111913 155.381363
11 55.193707 141.618347 32.268291 0.000000 0.000000 -0.136337 155.381271
12 55.193707 141.618347 32.268291 0.000000 0.000000 -0.162763 155.381271
13 55.193707 141.618347 32.268291 0.000000 0.000000 -0.190890 155.381271
[front_lower_right_part3]
8 10.943870 108.509445 -11.124725 33.376003 15.965815 13.556481 109.625854
9 10.943831 108.509369 -11.125030 33.383247 15.949218 13.582725 109.625801
10 10.943870 108.509369 -11.124725 33.391155 15.930890 13.611639 109.625778
11 10.943909 108.509521 -11.124725 33.399799 15.910987 13.642963 109.625931
12 10.943870 108.509445 -11.124877 33.408936 15.889666 13.676534 109.625862
13 10.943870 108.509369 -11.125030 33.418701 15.867020 13.712243 109.625809
[front_top_left_part2]
8 -42.301270 137.488464 54.824677 0.000000 -0.000003 0.000001 153.942261
9 -42.225056 137.488632 54.820404 0.000000 -0.000003 0.000001 153.919968
10 -42.140961 137.488861 54.815979 0.000000 -0.000003 0.000001 153.895538
11 -42.049580 137.488998 54.810787 0.000000 -0.000003 0.000001 153.868835
12 -41.951424 137.489166 54.805450 0.000000 -0.000003 0.000001 153.840286
13 -41.846981 137.489319 54.799648 0.000000 -0.000003 0.000001 153.809891
[front_top_left_part3]
8 -28.216476 149.656906 49.959717 -25.858280 -3.822560 -66.368637 160.278915
9 -28.216476 149.656906 49.959717 -25.861231 -3.800791 -66.323616 160.278915
10 -28.216476 149.656830 49.959717 -25.864513 -3.777005 -66.274498 160.278839
11 -28.216476 149.656982 49.959717 -25.867935 -3.751380 -66.221443 160.278992
12 -28.216438 149.657059 49.959717 -25.871731 -3.723408 -66.163628 160.279053
13 -28.216476 149.656982 49.959717 -25.875488 -3.695432 -66.105804 160.278992
[front_top_right_part2]
8 42.282825 137.487411 54.855042 0.000000 0.000000 -0.000020 153.947067
9 42.201385 137.487259 54.859467 0.000000 0.000000 -0.000020 153.926163
10 42.111588 137.487167 54.864346 0.000000 0.000000 -0.000020 153.903229
11 42.013855 137.486877 54.869843 0.000000 0.000000 -0.000020 153.878204
12 41.908951 137.486649 54.875484 0.000000 0.000000 -0.000020 153.851425
13 41.797405 137.486343 54.881744 0.000000 0.000000 -0.000020 153.823013
[front_top_right_part3]
8 28.216515 149.657135 49.959564 -25.853821 3.854826 66.435448 160.279083
9 28.216515 149.657059 49.959564 -25.855568 3.842087 66.408958 160.279022
10 28.216476 149.657059 49.959717 -25.857529 3.828132 66.380089 160.279053
11 28.216515 149.657135 49.959564 -25.859591 3.813045 66.349014 160.279083
12 28.216553 149.657059 49.959717 -25.861795 3.797050 66.315849 160.279083
13 28.216515 149.657135 49.959717 -25.864050 3.780246 66.281151 160.279129
